<svg version="1.1" xmlns="http://www.w3.org/2000/svg" xmlns:xlink="http://www.w3.org/1999/xlink" width="98.69917" height="258.72092" viewBox="0,0,98.69917,258.72092"><g transform="translate(-191.95636,-48.00974)"><g data-paper-data="{&quot;isPaintingLayer&quot;:true}" fill-rule="nonzero" stroke-linejoin="miter" stroke-miterlimit="10" stroke-dasharray="" stroke-dashoffset="0" style="mix-blend-mode: normal"><g><g stroke-linecap="butt"><path d="M201.03039,304.39161c0,0 -0.63536,-94.38387 -0.79335,-118.01201c-0.05451,-8.15261 8.18688,-36.76129 40.20201,-36.9211c31.60235,-0.15775 39.85672,29.48704 39.84884,36.89673c-0.07659,46.24274 0.65429,117.98648 0.65429,117.98648l-10.49667,0.09614l-0.15882,-114.84311c0,0 0.07549,-3.0993 -2.81625,-3.15415c-3.43441,-0.06514 -2.94538,3.11562 -2.94538,3.11562l0.20548,114.86995l-48.21366,0.07222l-0.30539,-115.23309c0,0 0.27949,-2.919 -2.8856,-2.93443c-3.11083,-0.01515 -2.81569,2.90899 -2.81569,2.90899l0.35311,115.0668z" fill="#ffffff" stroke="#000000" stroke-width="2"/><path d="M255.62756,200.33379c-0.57113,0 -1.03411,-0.46299 -1.03411,-1.03411c0,-0.57113 0.46299,-1.03413 1.03411,-1.03413c0.57113,0 1.03411,0.463 1.03411,1.03413c0,0.57113 -0.46299,1.03411 -1.03411,1.03411z" fill="#000000" stroke="none" stroke-width="1.5"/><path d="M250.36768,204.56939c-4.4635,-0.31439 -6.55245,-1.79392 -6.16985,-2.58011c0.11788,-0.24224 2.84645,1.06355 6.97038,1.3048c6.40897,0.37493 8.51033,-0.63173 8.51033,-0.63173v1.34616c0,0 -2.4135,1.04672 -9.31086,0.56089z" fill="#000000" stroke="#000000" stroke-width="0"/><path d="M222.55493,199.29968c0,-0.57113 0.46299,-1.03413 1.03411,-1.03413c0.57113,0 1.03413,0.463 1.03413,1.03413c0,0.57113 -0.463,1.03411 -1.03413,1.03411c-0.57113,0 -1.03411,-0.46299 -1.03411,-1.03411z" fill="#000000" stroke="none" stroke-width="1.5"/><path d="M228.84892,204.56939c-6.89736,0.48585 -9.31086,-0.56089 -9.31086,-0.56089v-1.34616c0,0 2.10136,1.00666 8.51033,0.63173c4.12393,-0.24126 6.85251,-1.54704 6.97039,-1.3048c0.3826,0.78618 -1.70634,2.26571 -6.16985,2.58011z" fill="#000000" stroke="#000000" stroke-width="0"/><path d="M240.12938,261.12113c-0.81895,0 -1.48284,-0.66389 -1.48284,-1.48284c0,-0.81895 0.66389,-1.48284 1.48284,-1.48284c0.81895,0 1.48284,0.66389 1.48284,1.48284c0,0.81895 -0.66389,1.48284 -1.48284,1.48284z" data-paper-data="{&quot;index&quot;:null}" fill="#000000" stroke="none" stroke-width="1.5"/></g><g><path d="M201.48933,303.5313c0,0 -0.63536,-94.38387 -0.79335,-118.01201c-0.05451,-8.15261 8.18688,-36.76129 40.20201,-36.9211c31.60235,-0.15775 39.85672,29.48704 39.84884,36.89673c-0.07659,46.24274 0.65429,117.98648 0.65429,117.98648l-10.49667,0.09614l-0.15882,-114.84311c0,0 0.07549,-3.0993 -2.81625,-3.15415c-3.43441,-0.06514 -2.94538,3.11562 -2.94538,3.11562l0.20548,114.86995l-48.21366,0.07222l-0.30539,-115.23309c0,0 0.27949,-2.919 -2.8856,-2.93443c-3.11083,-0.01515 -2.81569,2.90899 -2.81569,2.90899l0.35311,115.0668z" fill="#ffffff" stroke="#000000" stroke-width="2" stroke-linecap="butt"/><path d="M256.0865,199.47349c-0.57113,0 -1.03411,-0.46299 -1.03411,-1.03411c0,-0.57113 0.46299,-1.03413 1.03411,-1.03413c0.57113,0 1.03411,0.463 1.03411,1.03413c0,0.57113 -0.46299,1.03411 -1.03411,1.03411z" fill="#000000" stroke="none" stroke-width="1.5" stroke-linecap="butt"/><path d="M250.82662,203.70909c-4.4635,-0.31439 -6.55245,-1.79392 -6.16985,-2.58011c0.11788,-0.24224 2.84645,1.06355 6.97038,1.3048c6.40897,0.37493 8.51033,-0.63173 8.51033,-0.63173v1.34616c0,0 -2.4135,1.04672 -9.31086,0.56089z" fill="#000000" stroke="#000000" stroke-width="0" stroke-linecap="butt"/><path d="M223.01387,198.43938c0,-0.57113 0.46299,-1.03413 1.03411,-1.03413c0.57113,0 1.03413,0.463 1.03413,1.03413c0,0.57113 -0.463,1.03411 -1.03413,1.03411c-0.57113,0 -1.03411,-0.46299 -1.03411,-1.03411z" fill="#000000" stroke="none" stroke-width="1.5" stroke-linecap="butt"/><path d="M229.30786,203.70909c-6.89736,0.48585 -9.31086,-0.56089 -9.31086,-0.56089v-1.34616c0,0 2.10136,1.00666 8.51033,0.63173c4.12393,-0.24126 6.85251,-1.54704 6.97039,-1.3048c0.3826,0.78618 -1.70634,2.26571 -6.16985,2.58011z" fill="#000000" stroke="#000000" stroke-width="0" stroke-linecap="butt"/><path d="M240.58832,260.26084c-0.81895,0 -1.48284,-0.66389 -1.48284,-1.48284c0,-0.81895 0.66389,-1.48284 1.48284,-1.48284c0.81895,0 1.48284,0.66389 1.48284,1.48284c0,0.81895 -0.66389,1.48284 -1.48284,1.48284z" data-paper-data="{&quot;index&quot;:null}" fill="#000000" stroke="none" stroke-width="1.5" stroke-linecap="butt"/><path d="M193.58018,255.29349h94.44525v49.97583h-94.44525z" fill="#ff0000" stroke="none" stroke-width="12.2971" stroke-linecap="round"/><path d="M282.16263,188.36097c0,10.97587 -4.36014,21.50219 -12.12126,29.26331c-7.76112,7.76111 -18.28744,12.12126 -29.26331,12.12126c-22.85606,0 -41.38457,-18.5285 -41.38457,-41.38457c0,-22.85606 18.5285,-41.38457 41.38457,-41.38457c10.97587,0 21.50219,4.36015 29.26331,12.12126c7.76112,7.76111 12.12126,18.28744 12.12126,29.26331z" fill="#ff0000" stroke="none" stroke-width="12.7981" stroke-linecap="round"/><path d="M242.53016,146.93809c0.03383,0.00151 0.06765,0.00305 0.10147,0.00464v140.97644h-41.4027c-2.92797,-3.34976 -4.47738,-7.18348 -4.48271,-11.09161c0.00439,-3.06739 0.96019,-6.09889 2.80362,-8.8922c-3.87553,-3.67694 -5.96461,-8.10095 -5.96965,-12.64186c0.00693,-3.35276 1.15041,-6.65826 3.3397,-9.65414c-3.14065,-3.43518 -4.80853,-7.40971 -4.81209,-11.4672c0.00655,-3.943 1.58483,-7.80936 4.56331,-11.17889c-2.97848,-3.36953 -4.55675,-7.23588 -4.56331,-11.17888c0.00249,-4.18615 1.77643,-8.28136 5.10555,-11.78633c-2.11346,-4.12987 -2.75062,-8.33626 -1.84181,-12.15917c0.91996,-3.81442 3.34634,-7.09732 7.01443,-9.49056c4.52886,-18.45082 21.10251,-31.43101 40.14419,-31.44023z" fill="#05b6ff" stroke="none" stroke-width="13.0118" stroke-linecap="round"/><path d="M279.21967,178.37834c3.66809,2.39324 6.09447,5.67614 7.01443,9.49056c0.90881,3.8229 0.27165,8.0293 -1.84181,12.15917c3.32911,3.50496 5.10305,7.60018 5.10554,11.78633c-0.00655,3.943 -1.58483,7.80935 -4.5633,11.17888c2.97848,3.36953 4.55675,7.23588 4.5633,11.17889c-0.00357,4.05749 -1.67145,8.03202 -4.8121,11.4672c2.18929,2.99588 3.33278,6.30138 3.33971,9.65414c-0.00504,4.54091 -2.09412,8.96492 -5.96965,12.64186c1.84343,2.7933 2.79922,5.8248 2.80361,8.8922c-0.00533,3.90813 -1.55473,7.74185 -4.48271,11.09161h-41.24939v-140.97849c19.02159,0.03272 35.56711,13.00658 40.09236,31.43766z" fill="#05b6ff" stroke="none" stroke-width="13.0118" stroke-linecap="round"/><path d="M240.84576,141.96173c0.01126,-0.00033 0.02245,-0.00066 0.03371,-0.00066v0.00132c17.82766,0.05315 32.50049,19.3621 32.26652,43.17215c-0.44339,45.12255 -0.04244,120.13492 -0.04244,120.13492h-32.2915h-32.22408c0,0 0.40095,-75.01237 -0.04244,-120.13492c-0.23397,-23.81005 14.43886,-43.119 32.26652,-43.17214v-0.00132c0.01126,0 0.02246,0.00064 0.03371,0.00066z" fill="#03ff00" stroke="none" stroke-width="11.4545" stroke-linecap="round"/><path d="M261.05715,163.96721c-3.17136,13.01176 -11.00977,22.21972 -20.17768,22.22379c-9.16791,-0.00406 -17.00632,-9.21203 -20.17767,-22.22379c-2.72982,-10.18783 4.49416,-27.50028 20.17767,-27.50028c15.68351,0 22.9075,17.31245 20.17768,27.50028z" fill="#05b6ff" stroke="none" stroke-width="12.3" stroke-linecap="round"/><path d="M257.40421,155.46503c0,8.76174 -7.44378,19.36884 -16.62615,19.36884c-9.18237,0 -16.62614,-10.6071 -16.62614,-19.36884c0,-8.76173 7.44377,-15.86452 16.62614,-15.86452c9.18237,0 16.62615,7.10279 16.62615,15.86452z" fill="#000c1e" stroke="none" stroke-width="12.3" stroke-linecap="round"/><g stroke-width="1"><g><g><g stroke-linecap="butt"><path d="M210.88222,222.46391c0,0 4.28202,-4.11428 4.37117,-4.71577c0.23381,-1.57754 -0.11656,-27.91074 24.98897,-28.88385c31.01156,-0.63475 27.10601,24.5589 28.85403,29.31216c2.39679,6.51744 4.27739,12.08895 4.27739,12.08895c0,0 -1.92251,-1.4267 -2.83442,-2.17736c-0.85053,-0.70013 -2.64108,-2.18562 -2.64108,-2.18562c0,0 2.14758,7.18946 0.91078,14.37806c-1.08542,6.58701 -5.07024,11.96755 -5.07024,11.96755l-0.8026,-1.63084c0,0 -0.7105,1.52704 -1.50072,2.31546c-0.79022,0.78841 -2.38909,2.02365 -2.38909,2.02365l-0.06396,-2.57354c0,0 -4.90508,7.65484 -16.91788,7.55312c-11.32894,-0.17749 -18.11346,-7.41671 -18.11346,-7.41671l-0.08073,1.84448c0,0 -2.70593,-2.28768 -4.29463,-6.74442c-1.89354,-5.31191 -2.25065,-8.50612 -2.25065,-8.50612c0,0 -1.6251,1.31947 -3.97198,1.92755c-2.94077,0.76197 -4.82626,0.23988 -4.82626,0.23988c0,0 2.50666,-1.88779 3.87952,-3.31394c1.22283,-1.2703 1.83874,-2.34636 1.83874,-2.34636c0,0 -1.46427,0.75361 -2.94076,1.12409c-1.54056,0.38656 -2.79994,0.36887 -2.79994,0.36887c0,0 3.45638,-3.49971 4.88468,-7.55503c1.34855,-3.82888 1.45881,-7.61271 1.45881,-7.61271c0,0 -0.94602,0.45968 -2.31365,0.55242c-0.86689,0.0588 -1.65204,-0.03397 -1.65204,-0.03397z" fill="#000000" stroke="none"/><path d="M222.5444,230.32973c-0.40094,-5.06705 0.23274,-11.91825 0.23274,-11.91825c0,0 2.36954,-0.02865 9.6671,-2.18449c5.60644,-1.65627 14.27546,-6.59135 14.27546,-6.59135c0,0 -1.50072,2.08778 -2.36761,3.09874c-0.9216,1.07477 -2.77412,3.17017 -2.77412,3.17017c0,0 5.44554,-1.15859 10.19545,-3.28574c5.95297,-2.4565 7.35927,-4.20545 8.99745,-3.19083c1.93345,1.19751 0.71564,16.10643 0.49915,19.96786c-0.29293,3.93875 -1.76002,6.60001 -2.18871,8.69877c-0.4287,2.09876 -0.28457,4.26348 -1.53279,11.14375c-0.77898,4.29377 -2.89148,6.2005 -6.9611,10.18576c-4.06963,3.98526 -6.29021,6.42845 -9.04133,6.47637c-2.64757,0.04613 -6.20813,-3.54342 -9.68178,-7.21331c-3.69886,-3.90785 -6.16592,-5.88958 -6.74995,-10.5185c-0.52598,-4.16884 -0.5395,-6.88406 -0.77998,-10.59395c-0.17576,-2.71147 -1.57098,-4.47776 -1.78995,-7.24497z" fill="#ffffff" stroke="#000000"/></g><path d="M223.72524,237.36294c0,0 -3.42664,-2.4435 -4.28263,-6.23549c-0.90066,-3.9899 -1.01517,-6.76197 0.33358,-6.942c1.34875,-0.18005 1.87808,1.65139 2.59328,5.80521c0.71518,4.15382 1.35577,7.3723 1.35577,7.3723z" data-paper-data="{&quot;index&quot;:null}" fill="#ffffff" stroke="#000000" stroke-linecap="butt"/><path d="M223.58449,234.62034c0,0 -2.47602,-2.03106 -3.00009,-5.87116c-0.29235,-2.14213 1.49843,-1.58416 1.49843,-1.58416" fill="none" stroke="#000000" stroke-linecap="round"/><path d="M261.40431,229.99065c0.71519,-4.15382 1.24453,-5.98524 2.59328,-5.80521c1.34875,0.18004 1.23424,2.9521 0.33357,6.942c-0.85598,3.79199 -4.28262,6.23549 -4.28262,6.23549c0,0 0.64059,-3.21848 1.35578,-7.37229z" data-paper-data="{&quot;index&quot;:null}" fill="#ffffff" stroke="#000000" stroke-linecap="butt"/><path d="M261.69095,227.16502c0,0 1.79078,-0.55798 1.49843,1.58416c-0.52407,3.8401 -3.00009,5.87116 -3.00009,5.87116" data-paper-data="{&quot;index&quot;:null}" fill="none" stroke="#000000" stroke-linecap="round"/></g><path d="M255.94154,219.8247c0,0 1.05902,0.22098 2.95676,0.77139c1.73337,0.50274 3.09123,1.21168 3.09123,1.21168l0.13555,0.81312c0,0 -5.03676,-2.17458 -10.50187,-1.71648c-4.36977,0.36631 -6.92203,1.95395 -6.92203,1.95395l0.03179,-2.9019c0,0 2.17285,-1.18401 5.46336,-1.28918c3.4073,-0.10888 5.6212,0.41078 5.6212,0.41078z" data-paper-data="{&quot;index&quot;:null}" fill="#000000" stroke="none" stroke-linecap="butt"/><path d="M225.67808,229.99608c0.04928,-3.39869 3.36149,-6.20844 7.09446,-6.15433c3.73297,0.05412 6.27177,2.95162 6.2225,6.35031c-0.04928,3.39869 -2.86486,6.10999 -6.59783,6.05588c-3.73297,-0.05412 -6.76841,-2.85317 -6.71913,-6.25187z" fill="#ffffff" stroke="#000000" stroke-linecap="butt"/><path d="M228.76118,230.07802c0.02778,-1.91645 1.60389,-3.44749 3.52032,-3.41971c1.91645,0.02778 3.4475,1.60389 3.41971,3.52032c-0.02778,1.91645 -1.60389,3.4475 -3.52033,3.41971c-1.91645,-0.02778 -3.44749,-1.60389 -3.41971,-3.52033z" fill="#000000" stroke="none" stroke-linecap="butt"/><path d="M244.47572,229.99658c0.1414,-3.39611 3.09352,-6.15452 6.78815,-6.15452c3.69462,0 6.44358,2.75547 6.44358,6.15452c0,3.39905 -2.69974,6.30221 -6.73893,6.35142c-3.84201,0.04682 -6.64047,-2.8047 -6.4928,-6.35142z" fill="#ffffff" stroke="#000000" stroke-linecap="butt"/><path d="M247.67353,230.05602c0,-1.95815 1.58739,-3.54554 3.54554,-3.54554c1.95815,0 3.54554,1.58739 3.54554,3.54554c0,1.95815 -1.58738,3.54554 -3.54554,3.54554c-1.95815,0 -3.54554,-1.58739 -3.54554,-3.54554z" fill="#000000" stroke="none" stroke-linecap="butt"/><path d="M225.63054,229.62634c0,0 0.04416,-6.26335 7.36523,-6.13119c6.58008,0.11524 6.63881,6.53577 6.63881,6.53577z" fill="#ffffff" stroke="#000000" stroke-linecap="butt"/><path d="M244.21334,229.71728c0,0 -0.1715,-6.57119 7.78003,-6.32454c6.74909,0.23168 6.63272,6.70604 6.63272,6.70604z" fill="#ffffff" stroke="#000000" stroke-linecap="butt"/><path d="M228.08294,222.67063c0,0 2.34108,-1.26377 5.58062,-1.58529c3.58981,-0.35629 5.39706,-0.04605 5.39706,-0.04605l0.20501,2.87455c0,0 -2.66478,-0.47289 -5.57055,-0.36206c-3.88611,0.14821 -4.6166,0.99554 -7.57132,1.31392c-2.53177,0.27281 -4.68076,0.11035 -4.68076,0.11035l-0.01799,-0.85563c0,0 2.49778,0.0514 3.63618,-0.04749c0.93958,-0.08163 2.76216,-0.65174 2.76216,-0.65174z" fill="#000000" stroke="none" stroke-linecap="butt"/></g><path d="M225.22788,250.74448c0,0 2.43749,-0.8554 4.51384,-1.49782c1.83228,-0.5669 4.12537,-1.23625 4.12537,-1.23625c0,0 2.76307,0.23043 3.99024,0.40907c1.2461,0.1814 3.76713,0.87316 3.76713,0.87316c0,0 4.04206,-1.09153 6.20153,-0.74757c1.36791,0.21788 9.63232,4.4016 9.63232,4.4016c0,0 -1.14276,2.41502 -3.80894,4.93385c-2.87965,2.72049 -7.43553,5.55086 -11.40826,5.27481c-6.06779,-0.42162 -10.24182,-3.32798 -12.93652,-6.22204c-2.88782,-3.10146 -4.0767,-6.18879 -4.0767,-6.18879z" fill="#000000" stroke="none" stroke-linecap="butt"/><path d="M226.7517,251.56722c0,0 5.78975,1.12252 8.49882,1.70775c2.59325,0.5602 7.558,2.06849 7.558,2.06849c0,0 5.35386,-1.40266 7.45283,-1.63424c2.09414,-0.23105 5.79989,0.15524 5.79989,0.15524c0,0 -1.91559,2.09324 -4.41004,3.94582c-2.42411,1.80032 -6.05235,3.45322 -9.40505,3.4093c-10.00463,-0.13108 -15.49445,-9.65235 -15.49445,-9.65235z" fill="#ffffff" stroke="none" stroke-linecap="butt"/><path d="M234.48308,249.32542c1.7817,-0.0589 7.59672,0.92286 7.59672,0.92286c0,0 3.60396,-0.76529 5.3616,-0.35119c1.77258,0.41763 5.58987,2.49 5.58987,2.49c0,0 -3.84868,0.18141 -5.46149,0.31738c-1.74319,0.14695 -4.97357,0.66861 -4.97357,0.66861c0,0 -4.34209,-0.62021 -6.57997,-1.0872c-2.38941,-0.49861 -7.18119,-1.4712 -7.18119,-1.4712c0,0 3.86633,-1.43034 5.64803,-1.48924z" fill="#ffffff" stroke="none" stroke-linecap="butt"/><path d="M241.60317,250.21871c-0.71821,0 -2.45813,-2.26521 -2.63085,-3.72649c-0.15454,-1.30744 0.9137,-2.65954 2.63085,-2.65954c1.71716,0 2.91945,0.34096 2.79987,2.91002c-0.10148,2.18028 -1.08272,3.47601 -2.79987,3.47601z" fill="#ffffff" stroke="#000000" stroke-linecap="butt"/><path d="M244.10577,229.31078c0,0 0.07129,2.75803 0.00401,4.95129c-0.13322,4.34304 -0.75137,19.28705 -0.75137,19.28705l-2.07154,0.006c0,0 -0.55785,-2.89906 -0.78037,-6.60008c-0.3012,-5.00966 -0.31229,-11.31988 -0.53041,-13.63974c-0.20675,-2.19901 -0.62246,-3.97023 -0.62246,-3.97023" fill="#ffffff" stroke="#000000" stroke-linecap="round"/></g></g><g><path d="M243.57927,293.91496c-0.94552,0 -1.71202,-0.6639 -1.71202,-1.48284c0,-0.81895 0.7665,-1.48284 1.71202,-1.48284c0.94552,0 1.71202,0.66389 1.71202,1.48284c0,0.81895 -0.7665,1.48284 -1.71202,1.48284z" data-paper-data="{&quot;index&quot;:null}" fill="#000000" stroke="none" stroke-width="1.5" stroke-linecap="butt"/><path d="M194.83833,300.14776l-0.0532,-6.48742c0,0 11.82564,-1.89514 19.89735,-5.43003c8.32923,-3.64767 22.78729,-14.4616 22.78729,-14.4616l5.4411,9.32076c0,0 -14.36858,10.77474 -22.61558,14.3864c-8.16114,3.57405 -25.45696,2.6719 -25.45696,2.6719z" fill="#0b0b36" stroke="none" stroke-width="0" stroke-linecap="butt"/><path d="M254.24024,278.95324l-3.71233,-6.8079c0,0 10.2436,-11.7959 15.97048,-22.2146c1.70124,-3.095 4.42498,-8.14035 7.44152,-13.75663c7.46197,-13.89293 16.71562,-31.27945 16.71562,-31.27945l-0.05338,16.22697c0,0 -7.66481,23.2806 -13.51606,33.92555c-5.79033,10.53412 -22.84584,23.90606 -22.84584,23.90606z" fill="#0b0b36" stroke="none" stroke-width="0" stroke-linecap="butt"/><path d="M219.69745,285.84159c0.54539,-3.99616 7.26363,-5.12534 12.23257,-9.00069c8.45415,-6.59351 17.31347,-15.45224 21.7645,-18.67095c7.80942,-5.64728 23.6021,18.08329 23.6021,23.56071c0,13.07074 -12.66429,25 -28.28647,25c-3.15118,0 -30.09635,-15.14707 -29.3127,-20.88907z" fill="#ff4204" stroke="none" stroke-width="0" stroke-linecap="butt"/><path d="M250.16471,306.73064c-3.15118,0 -23.29735,-5.92485 -22.5137,-11.66685c6.60464,-6.57299 24.49256,-19.00556 31.55969,-24.11607c1.24566,-0.90078 3.31126,5.2054 4.35093,5.18328c5.47834,-0.11654 14.88954,2.32925 14.88954,6.93298c0,13.07074 -12.66429,23.66667 -28.28646,23.66667z" fill="#ff8800" stroke="none" stroke-width="0" stroke-linecap="butt"/><path d="M225.64687,295.32273l33.22536,-23.44444" fill="none" stroke="#ffffff" stroke-width="2" stroke-linecap="round"/><path d="M218.33472,284.98939l38.65795,-27.27777" fill="none" stroke="#ffffff" stroke-width="3" stroke-linecap="round"/><path d="M285.33754,231.98773l-1.72271,6.05376l-8.19785,-3.78186l2.77576,-5.29456z" fill="#ff4204" stroke="none" stroke-width="0" stroke-linecap="butt"/><path d="M286.22999,210.90291c0,0 -22.56951,26.24589 -27.5037,31.61069c-3.97974,4.32704 -13.06918,10.67114 -13.06918,10.67114" fill="none" stroke="#000000" stroke-width="3" stroke-linecap="round"/><path d="M245.1225,253.86107c0,0 -7.55926,6.5469 -13.32523,11.24842c-4.65062,3.79206 -14.69048,8.95038 -14.69048,8.95038" fill="none" stroke="#ffffff" stroke-width="3" stroke-linecap="round"/></g></g><g><g stroke="none" stroke-width="0" stroke-linecap="butt"><path d="M192.21839,121.46762c-2.11327,-7.05313 9.25,-24.8125 9.25,-24.8125c0,0 18.51307,-11.88052 31.9375,-13.25c42.61703,-4.34755 45.26476,2.65903 45.26476,2.65903c0,0 -10.70225,22.6452 -13.2457,28.00787c-1.02018,2.15098 -3.66869,5.05767 -6.26422,5.86273c-4.85436,1.5057 -13.45468,3.94883 -22.83269,5.56904c-13.29308,2.29661 -27.99586,2.61103 -29.60135,2.53601c-5.4821,-0.25615 -13.00243,-1.54626 -14.50831,-6.57219z" fill="#0590ff"/><path d="M192.60721,115.20873c0,0 0.08137,-0.30048 0.12435,-0.45189c2.26888,-7.99313 8.73683,-18.10172 8.73683,-18.10172l0.53348,3.19312c0,0 -2.9534,5.26268 -4.22762,7.89641c-1.29629,2.67935 -3.48506,8.04516 -3.48506,8.04516c0,0 -0.37575,1.14613 -1.34129,0.56277c-0.72373,-0.43726 -0.3407,-1.14384 -0.3407,-1.14384z" fill="#05b6ff"/></g><g><g><g stroke-width="1.5" stroke-linecap="butt"><path d="M195.9269,103.88011c0,0 6.16329,-5.92187 6.29161,-6.78761c0.33654,-2.27063 -0.16776,-40.17317 35.96775,-41.57382c44.63633,-0.91362 39.01489,35.34872 41.53088,42.1903c3.44981,9.38084 6.15664,17.40016 6.15664,17.40016c0,0 -2.76715,-2.05351 -4.0797,-3.13397c-1.2242,-1.00773 -3.80143,-3.14585 -3.80143,-3.14585c0,0 3.09111,10.3481 1.31092,20.69498c-1.5623,9.48098 -7.29782,17.22543 -7.29782,17.22543l-1.15522,-2.34735c0,0 -1.02266,2.19794 -2.16005,3.33274c-1.1374,1.13479 -3.43873,2.91273 -3.43873,2.91273l-0.09205,-3.70421c0,0 -7.0601,11.01795 -24.35066,10.87154c-16.30625,-0.25547 -26.07151,-10.6752 -26.07151,-10.6752l-0.1162,2.65484c0,0 -3.89477,-3.29276 -6.18145,-9.70754c-2.72545,-7.64567 -3.23946,-12.24324 -3.23946,-12.24324c0,0 -2.33908,1.89916 -5.71704,2.7744c-4.23278,1.09673 -6.94665,0.34526 -6.94665,0.34526c0,0 3.60795,-2.71717 5.58396,-4.76989c1.76007,-1.8284 2.64658,-3.37722 2.64658,-3.37722c0,0 -2.10758,1.0847 -4.23277,1.61795c-2.21739,0.5564 -4.03008,0.53093 -4.03008,0.53093c0,0 4.97492,-5.03728 7.03074,-10.87429c1.94102,-5.51108 2.09972,-10.95731 2.09972,-10.95731c0,0 -1.36165,0.66163 -3.33013,0.79513c-1.24776,0.08463 -2.37785,-0.0489 -2.37785,-0.0489z" fill="#000000" stroke="none"/><path d="M212.71279,115.20173c-0.57709,-7.29323 0.335,-17.15448 0.335,-17.15448c0,0 3.41059,-0.04124 13.91429,-3.14424c8.0696,-2.38394 20.54731,-9.48722 20.54731,-9.48722c0,0 -2.16005,3.00503 -3.40781,4.46015c-1.32651,1.54696 -3.99292,4.56297 -3.99292,4.56297c0,0 7.838,-1.66761 14.67476,-4.72931c8.56837,-3.53575 10.59252,-6.05309 12.95042,-4.5927c2.7829,1.72362 1.03006,23.1827 0.71846,28.74062c-0.42163,5.66922 -2.53327,9.49969 -3.15031,12.52053c-0.61704,3.02084 -0.4096,6.13662 -2.20622,16.0397c-1.12121,6.18021 -4.16183,8.92466 -10.01942,14.66081c-5.85759,5.73616 -9.05378,9.25275 -13.01359,9.32173c-3.81077,0.06639 -8.93565,-5.1002 -13.93542,-10.38244c-5.32393,-5.62474 -8.87489,-8.47713 -9.71551,-15.13975c-0.75707,-6.00039 -0.77653,-9.90853 -1.12266,-15.24835c-0.25298,-3.90273 -2.26119,-6.44504 -2.57636,-10.42801z" fill="#ffffff" stroke="#000000"/></g><path d="M214.41243,125.32495c0,0 -4.93211,-3.51705 -6.16417,-8.97502c-1.29636,-5.74284 -1.46118,-9.7328 0.48013,-9.99193c1.94131,-0.25915 2.70321,2.37692 3.73262,8.35569c1.0294,5.97877 1.95143,10.61127 1.95143,10.61127z" data-paper-data="{&quot;index&quot;:null}" fill="#ffffff" stroke="#000000" stroke-width="1" stroke-linecap="butt"/><path d="M214.20984,121.37739c0,0 -3.56385,-2.92338 -4.31816,-8.45061c-0.42079,-3.08327 2.15675,-2.28016 2.15675,-2.28016" fill="none" stroke="#000000" stroke-width="0.25" stroke-linecap="round"/><path d="M268.64559,114.71368c1.0294,-5.97877 1.7913,-8.61483 3.73262,-8.35569c1.94131,0.25914 1.77649,4.24909 0.48013,9.99193c-1.23206,5.45797 -6.16417,8.97502 -6.16417,8.97502c0,0 0.92203,-4.6325 1.95143,-10.61127z" data-paper-data="{&quot;index&quot;:null}" fill="#ffffff" stroke="#000000" stroke-width="1" stroke-linecap="butt"/><path d="M269.05818,110.64662c0,0 2.57754,-0.80312 2.15675,2.28016c-0.75431,5.52723 -4.31816,8.45061 -4.31816,8.45061" data-paper-data="{&quot;index&quot;:null}" fill="none" stroke="#000000" stroke-width="0.25" stroke-linecap="round"/></g><path d="M260.78279,100.08137c0,0 1.52429,0.31807 4.2558,1.11029c2.49492,0.72361 4.44935,1.74403 4.44935,1.74403l0.1951,1.17035c0,0 -7.24963,-3.12997 -15.1158,-2.4706c-6.2896,0.52724 -9.96319,2.8124 -9.96319,2.8124l0.04575,-4.17683c0,0 3.12748,-1.70421 7.86366,-1.85557c4.90428,-0.15672 8.09084,0.59125 8.09084,0.59125z" data-paper-data="{&quot;index&quot;:null}" fill="#000000" stroke="none" stroke-width="1.5" stroke-linecap="butt"/><path d="M217.22324,114.72149c0.07093,-4.89188 4.83834,-8.93609 10.21137,-8.8582c5.37302,0.0779 9.02724,4.2484 8.95632,9.14029c-0.07093,4.89188 -4.12352,8.79439 -9.49655,8.7165c-5.37302,-0.0779 -9.74207,-4.1067 -9.67114,-8.99859z" fill="#ffffff" stroke="#000000" stroke-width="1.4" stroke-linecap="butt"/><path d="M221.66088,114.83943c0.03999,-2.75843 2.30855,-4.96213 5.06696,-4.92214c2.75843,0.03999 4.96213,2.30855 4.92214,5.06696c-0.03999,2.75843 -2.30854,4.96213 -5.06696,4.92214c-2.75843,-0.03999 -4.96213,-2.30855 -4.92214,-5.06696z" fill="#000000" stroke="none" stroke-width="1.5" stroke-linecap="butt"/><path d="M244.27952,114.72222c0.20353,-4.88817 4.45264,-8.85847 9.77048,-8.85847c5.31783,0 9.27453,3.96607 9.27453,8.85847c0,4.8924 -3.88585,9.07104 -9.69964,9.14188c-5.52997,0.06739 -9.55792,-4.03692 -9.34537,-9.14188z" fill="#ffffff" stroke="#000000" stroke-width="1.4" stroke-linecap="butt"/><path d="M248.88227,114.80777c0,-2.81845 2.2848,-5.10325 5.10325,-5.10325c2.81845,0 5.10325,2.2848 5.10325,5.10325c0,2.81845 -2.28479,5.10325 -5.10325,5.10325c-2.81845,0 -5.10325,-2.2848 -5.10325,-5.10325z" fill="#000000" stroke="none" stroke-width="1.5" stroke-linecap="butt"/><path d="M217.15481,114.18931c0,0 0.06357,-9.01512 10.60111,-8.8249c9.47101,0.16586 9.55554,9.40723 9.55554,9.40723z" fill="#ffffff" stroke="#000000" stroke-width="1.15" stroke-linecap="butt"/><path d="M243.90187,114.32021c0,0 -0.24686,-9.4582 11.19813,-9.1032c9.71427,0.33347 9.54677,9.65229 9.54677,9.65229z" fill="#ffffff" stroke="#000000" stroke-width="1.15" stroke-linecap="butt"/><path d="M220.68466,104.17765c0,0 3.36963,-1.819 8.03244,-2.28178c5.16698,-0.51283 7.76823,-0.06628 7.76823,-0.06628l0.29508,4.13747c0,0 -3.83554,-0.68065 -8.01795,-0.52113c-5.59346,0.21333 -6.64488,1.43293 -10.89774,1.89119c-3.64408,0.39266 -6.73723,0.15884 -6.73723,0.15884l-0.02589,-1.23155c0,0 3.59517,0.07398 5.23371,-0.06836c1.35239,-0.11749 3.9757,-0.93808 3.9757,-0.93808z" fill="#000000" stroke="none" stroke-width="1.5" stroke-linecap="butt"/></g><g stroke="none" stroke-linecap="butt"><path d="M230.82161,51.32425c0,0 -0.32086,-1.32706 0.28246,-2.07205c0.92959,-1.14789 3.30002,-1.14186 4.80163,-1.22454c4.21582,-0.23213 4.58195,1.86807 4.58195,1.86807c0,0 -1.89655,2.10483 -3.64046,2.36256c-1.74391,0.25773 -6.02559,-0.93404 -6.02559,-0.93404z" fill="#0590ff" stroke-width="0"/><path d="M202.13731,98.90512c0,0 -0.693,-8.99967 -0.49514,-17.24975c0.15065,-6.28149 1.00195,-12.01767 2.78686,-16.37139c3.26828,-7.97196 13.86233,-12.5657 30.72347,-14.94871c9.54542,-1.34907 19.3616,-1.22007 28.00948,1.85967c4.28956,1.52764 6.993,4.20816 9.59382,7.1921c7.40825,8.49956 7.49846,21.0376 7.30572,25.142c-0.04058,0.8642 -0.35787,1.35451 -0.35787,1.35451c0,0 -1.34079,-1.4205 -5.44528,-1.77851c-0.14415,-0.01257 -0.44175,-0.03368 -0.44175,-0.03368c0,0 0.67504,-12.17048 -15.94075,-11.02571c-23.70397,1.63312 -23.16272,13.66205 -23.16272,13.66205c0,0 -0.27923,0.02876 -0.41807,0.04353c-23.28964,2.4764 -32.15775,12.15388 -32.15775,12.15388z" fill="#ff4204" stroke-width="0"/><path d="M233.97321,86.74208c0,0 -3.54569,0.20028 -3.70524,-3.15603c-0.14413,-3.03198 2.87859,-3.46546 2.87859,-3.46546l40.46425,-2.78484c0,0 3.64586,-0.09779 3.77443,3.19993c0.13036,3.34346 -3.47976,3.55342 -3.47976,3.55342z" fill="#05b6ff" stroke-width="0"/><path d="M210.29696,66.87319c0,-1.69929 1.57368,-3.07682 3.51493,-3.07682c1.94125,0 3.51493,1.37754 3.51493,3.07682c0,1.69929 -1.57368,3.07682 -3.51493,3.07682c-1.94125,0 -3.51493,-1.37754 -3.51493,-3.07682z" fill="#ff9805" stroke-width="0.5"/></g></g><g stroke="none" stroke-width="0" stroke-linecap="butt"><path d="M216.57524,144.58559c0,0 3.5084,-1.23122 6.49698,-2.15588c2.63728,-0.81597 5.93782,-1.77939 5.93782,-1.77939c0,0 3.97701,0.33167 5.74333,0.58879c1.79357,0.26109 5.4222,1.25678 5.4222,1.25678c0,0 5.81792,-1.5711 8.92614,-1.07602c1.96889,0.31361 13.86422,6.33543 13.86422,6.33543c0,0 -1.64483,3.47604 -5.48239,7.10151c-4.14481,3.91572 -10.70228,7.9896 -16.42041,7.59227c-8.73364,-0.60686 -14.74151,-4.79011 -18.62012,-8.95566c-4.15657,-4.46407 -5.86777,-8.90781 -5.86777,-8.90781z" fill="#000000"/><path d="M218.76854,145.76979c0,0 8.33345,1.61569 12.23274,2.45804c3.73258,0.80633 10.87856,2.97727 10.87856,2.97727c0,0 7.70604,-2.01892 10.72719,-2.35224c3.01419,-0.33256 8.34804,0.22345 8.34804,0.22345c0,0 -2.75719,3.0129 -6.34757,5.67939c-3.48913,2.59128 -8.71141,4.97038 -13.5371,4.90716c-14.40011,-0.18866 -22.30186,-13.89306 -22.30186,-13.89306z" fill="#ffffff"/><path d="M229.89666,142.54307c2.56447,-0.08477 10.9343,1.32831 10.9343,1.32831c0,0 5.18733,-1.10151 7.71718,-0.50548c2.55136,0.60111 8.04576,3.58396 8.04576,3.58396c0,0 -5.53959,0.26112 -7.86097,0.45682c-2.50905,0.21152 -7.15868,0.96235 -7.15868,0.96235c0,0 -6.24976,-0.8927 -9.47084,-1.56485c-3.43918,-0.71767 -10.33621,-2.11757 -10.33621,-2.11757c0,0 5.56499,-2.05876 8.12946,-2.14353z" fill="#ffffff"/></g><g fill="#ffffff" stroke="#000000"><path d="M240.14493,143.82883c-1.03376,0 -3.5381,-3.26042 -3.7867,-5.3637c-0.22243,-1.88186 1.31512,-3.82799 3.7867,-3.82799c2.47159,0 4.2021,0.49077 4.02999,4.18853c-0.14607,3.13818 -1.55841,5.00317 -4.02999,5.00317z" stroke-width="1.15" stroke-linecap="butt"/><path d="M243.74704,113.73511c0,0 0.1026,3.96976 0.00576,7.12662c-0.19174,6.25113 -1.08147,27.7607 -1.08147,27.7607l-2.98167,0.00864c0,0 -0.80294,-4.17274 -1.12322,-9.49979c-0.43353,-7.21063 -0.4495,-16.29321 -0.76344,-19.63229c-0.29758,-3.16513 -0.89593,-5.71453 -0.89593,-5.71453" stroke-width="1.3" stroke-linecap="round"/></g></g></g></svg>